# xmcd
#
# Track frame offsets:
#	150
#	9489
#	38968
#	50029
#	73741
#	84549
#	99689
#	143559
#
# Disc length: 2102 seconds
#
# Revision: 0
# Processed by: cddbd v1.4PL0 Copyright (c) Steve Scherf et al.
# Submitted via: audiograbber 1.80.04
#
DISCID=6a083408
DTITLE=Various Artist - Neues Projekt
DYEAR=1900
DGENRE=
TTITLE0=Neil Diamond - Jonathan Livingston Seagul Prologue
TTITLE1=Neil Diamond - Be
TTITLE2=Neil Diamond - Flight of the Gull
TTITLE3=Neil Diamond - Dear Father
TTITLE4=Neil Diamond - Skybird
TTITLE5=Neil Diamond - Lonely Lokking Sky
TTITLE6=Neil diamond - Jonathan Livingston Seagull
TTITLE7=Neil Diamond - Anthem
EXTD=
EXTT0=
EXTT1=
EXTT2=
EXTT3=
EXTT4=
EXTT5=
EXTT6=
EXTT7=
PLAYORDER=
